<?xml version="1.0" encoding="utf-8"?>
<!-- Generator: Adobe Illustrator 27.5.0, SVG Export Plug-In . SVG Version: 6.00 Build 0)  -->
<svg version="1.1" xmlns="http://www.w3.org/2000/svg" xmlns:xlink="http://www.w3.org/1999/xlink" x="0px" y="0px"
	 viewBox="0 0 647 647" style="enable-background:new 0 0 647 647;" xml:space="preserve">
<style type="text/css">
	.st0{fill:none;stroke:#EC008C;stroke-width:0.1;stroke-miterlimit:10;}
</style>
<g id="svg5" xmlns:svg="http://www.w3.org/2000/svg" xmlns:inkscape="http://www.inkscape.org/namespaces/inkscape" xmlns:sodipodi="http://sodipodi.sourceforge.net/DTD/sodipodi-0.dtd" inkscape:version="1.2.2 (b0a8486541, 2022-12-01)">
	
		<sodipodi:namedview  bordercolor="#eeeeee" borderopacity="1" id="namedview22" inkscape:current-layer="svg5" inkscape:cx="259.27442" inkscape:cy="257.1907" inkscape:deskcolor="#505050" inkscape:pagecheckerboard="0" inkscape:pageopacity="0" inkscape:showpageshadow="0" inkscape:window-height="1080" inkscape:window-maximized="1" inkscape:window-width="1920" inkscape:window-x="0" inkscape:window-y="0" inkscape:zoom="1.6796875" pagecolor="#505050" showgrid="false">
		</sodipodi:namedview>
	<g id="layer3" transform="matrix(1.2669235,0,0,1.2669235,-54.60518,-64.929055)">
		<path id="path1880" d="M337.9,270.7c-10-2.1-9.8-12.5-7.6-17.4c2.8-5.5,9.9-8.6,16.7-7.3c11.8,2.4,12.2,19.7,5.8,23.1
			C346.3,272.4,341.5,271.4,337.9,270.7L337.9,270.7z M348.3,256.2c1.2-4.2-5.1-6.4-5.8-2.2C341.7,258.2,347,260.1,348.3,256.2z"/>
		<path id="path1878" d="M264.9,272.7c-3.8-1.5-6.7-5.1-7.8-9c-1.1-5.8,0-10,4.2-13.3c3.1-2.3,7.1-3.7,11-3.3c4.2,0.5,8,3.2,10,6.8
			c1.8,3.1,2.3,6.9,1.5,10.3c-0.8,2.7-3,4.9-5.4,6.3c-3.9,2.3-8.8,3.1-13.3,2.1C265,272.7,265,272.7,264.9,272.7L264.9,272.7z
			 M274.5,254.2c-1-1-2.5-1.4-3.8-0.8c-1.5,0.6-2.5,2.4-2,4c0.7,1.8,2.9,3,4.8,2.2c1.5-0.5,2.5-2.1,2.1-3.7
			C275.5,255.3,275.1,254.7,274.5,254.2z"/>
		<g id="g1924" inkscape:label="Boba">
			<path id="path1876" d="M387.7,408.5c-8.7-7.5,5.7-20.8,12.5-11.8c5.6,6.3-4.8,15.1-11.5,12.3L387.7,408.5z"/>
			<path id="path1874" d="M377.8,435.3c-5.8-2.4-5.1-11.1,0.2-13.7c5.1-4.7,13.1-0.1,13.8,6.2C392.7,435.2,383.2,437.1,377.8,435.3z
				"/>
			<path id="path1872" d="M318.3,441.6c-6.3-1.2-9.9-10.4-4.3-14.6c4.6-5.2,13.6-4.9,17.1,1.4C336.2,436.4,325.9,444.3,318.3,441.6z
				"/>
			<path id="path1870" d="M297.3,455.7c-6.7-1.6-9.9-11.5-3.8-15.8c5.3-4.9,16.2-2,15.7,6.1C309.7,452.1,303.4,457.8,297.3,455.7
				L297.3,455.7z"/>
			<path id="path1868" d="M355.9,456.6c-8.1-5-0.4-17.4,7.5-15.9c5.8,1.9,9.8,9.7,4.6,14.4C364.7,458.3,360,459,355.9,456.6z"/>
			<path id="path1866" d="M265.9,457.3c-7.5-3.2-6.3-15.7,1.6-17.6c6.3-2.9,16.1,1.2,15.1,9.1C279.9,455.3,273,459.7,265.9,457.3
				L265.9,457.3z"/>
			<path id="path1864" d="M334.6,459.2c-9.6-0.3-7.2-15.4,1.1-15.1c6.6-1.3,14.3,6.3,9,12.4C342.7,460.1,338.1,460.3,334.6,459.2z"
				/>
			<path id="path1862" d="M227.4,461.3c-10.4-0.5-10.9-14-3.2-19c7.4-5,19,2.6,17.4,11.5C240.9,460.4,232.9,462.9,227.4,461.3
				L227.4,461.3z"/>
			<path id="path1860" d="M371.9,468.7c-10.1-3.8-1.6-19.5,7.4-14.4c7.2,2.2,9,13.1,0.2,14.8C376.9,470.6,374.3,469.9,371.9,468.7z"
				/>
			<path id="path1858" d="M245.2,476.3c-8.6-2.5-6.8-16.4,1.2-18.8c8.5-3.7,16.7,7.4,12.2,14.9C255.5,476.2,250,478.2,245.2,476.3
				L245.2,476.3z"/>
			<path id="path1856" d="M311.2,477c-8.3-2.7-6.3-13.4-1.3-18.3c5-5.6,13.9-0.9,15.8,5.3C330.7,472.4,319,481,311.2,477L311.2,477z
				"/>
			<path id="path1854" d="M340.6,478.3c-7.9-6,2.8-16.2,10.1-13.8c6.6,0.6,9.3,9.2,4.5,13.6C351.6,482,343.9,482.9,340.6,478.3z"/>
			<path id="path1852" d="M281.7,480.4c-6.8-3-6.8-12.7-1-16.7c7.2-8.5,19,2.6,15.3,11.6C293.6,480.2,286.8,483,281.7,480.4z"/>
		</g>
		<path id="path618" d="M237.2,490.6c-9.9-2.4-21.4-12.1-33.1-29.3c-7.9-12.9-10.8-49.5-7.9-67.6c0.4-1.7,1.5-5.1,1-5.8
			c-0.5-0.8-2.3-1.2-3.2-1.2s-3.1,0.5-3.5,1.2c-0.7,1.6-0.3,4.5-1.2,6.9c-2.1,5.6-7.8,4.8-12.2,4.9c-6.4,0.2-14.6-0.7-18.4-5.9
			c-5.8-8.1-5-20.9,0.5-29.8c1.6-2.5,1.6-2.7,0.7-6.4c-0.5-2.1-1.1-5-1.4-6.4c-0.2-1.4-1.6-8.3-1.6-9.7c0-3.7,5.5-5.2,10.5-5.8
			l3.9-0.4c0-1.4,0-9.8,0-14.6c0-1.1,6.8-1.2,6.7,0c-0.1,5.2,0,7.9,0,14.6l3.2,0.4c4.9,0.7,12.1,2.2,12.1,5.8c0,0.8-0.5,3.9-0.9,7
			c-0.5,3.1-2.4,6.9-1.6,6.9c4.4,0,12.1-4.2,14.9-11.9c2.9-7.9,10.7-13.1,14.9-13.4c0,0,3-0.3,3-0.7c-3-2.5-6.1-4.3-12.2-10.3
			c-6.1-6.1-3.2-20-8.8-23.5c-2.3-1.5-3.8-2.6-6.4-2.6c-9.5,0-13.4-7.5-13.4-16.1c0-8.5-0.1-13,0-20.9c0-10.9,14.8-15.2,18.8-15.2
			c7.6,0,4.6-10.9,7.1-16.3c4-9.3,9.2-18.2,16.2-25.2l5.1-5c-10.3-22.7-19.8-56.8-24.1-70c-4.4-13.2-4.3-14.2-4.3-14.2l17.1-9.8
			c10.4,22.7,18.7,48.3,27.8,70.4c0.8,2,1.7,4.4,1.9,5.3c0.2,0.9,0.8,2.2,1.4,2.9c15.6-4.9,31.2-10.8,47.5-11.8
			c19.9-1.3,41.2-1.1,59.5,7c17.2,7.6,28.8,16.7,42.4,37c7.4,11.2,11.5,18.9,13.6,25.4c1.1,3.5,1.3,3.7,4.4,4.6
			c10.6,3.1,11.4,9.4,11.4,18.8v20.7c0,10.7-11.4,12.2-16.4,12.2c-5,0-5.5,8.4-7,13.2c-1.3,4.2-2.3,8-6.8,11.6
			c-2.4,2.3-2.5,3-0.5,3.7c6.5,1.6,12.2,6.1,16.3,9.9c3.9,3.6,7.8,9.3,9.8,14.1c4.1,11.9-2,26.6-8.6,33.2c-2.9,2.9-6.8,3.8-6.7,4.3
			c0.8,2.5,2.2,19.4,2.2,26.7c0,10.3-2.3,29.2-4.1,36.6c-3.3,18.2-17.3,34.5-32.6,41.1c-20.2,7.9-43.8,8.8-64.4,8.9
			C285.8,495.9,258.7,495.4,237.2,490.6L237.2,490.6z M379.9,471.9c15.4-13.1,21.8-32.4,23.3-56.1c0.6-8.8-0.4-29.3-1.4-29.7
			c-16.4,4.2-34.1,6-44.6-6.9c-5.2-6.2-7.5-14-6.2-20.4c-0.7,0.2-2.2,0.5-4.9,2.8c-12.4,11.8-28.4,18.1-43.2,21.5
			c-17.5,3.8-39.5,2.1-52.4,2.4c-12.9,0.3-44,7.3-44.6,14.3c-1.9,14.9-0.2,38.5,4.9,50.3c5.7,12.3,16.1,24,26.3,31
			c9.4,6.1,58.1,7.3,72.7,7.3C329.8,488.7,361.6,487.5,379.9,471.9z M210.2,386.3c9-5,25.4-8.5,37.4-8.6c12-0.1,36.2,1,54.7-2.4
			c14.7-3.1,26-9.3,40.3-19.5c3.8-2.5,8.6-4.1,10.2-4.7c0.4,0,3.4-3.6,4.8-5c6.2-6.7,12.9-8.1,21.9-4.7c1.1,0.4,1.8,0.2,2.8-0.8
			c1.8-1.5,4.1-2.4,5.7-3.6c3.3-2.5,3.2-2.6-1.5-5c-4.6-2.6-6.6,0.3-10.5,1.3c-7.3,2.3-14.1,5.3-21.5,6c-22.2,2.6-44.9,3.3-67.2,1.8
			c-3.3-0.2-8.6-0.6-11.7-0.7c-6.3-0.3-12.5-1.1-31.6-3.7c-4.2-0.6-14,3.9-16.6,5.2c-11.1,7.7-12,14.9-16.6,26.1
			c-1.6,5.7-2.9,8.9-4.2,14.3C205.9,387.4,206.2,388.4,210.2,386.3L210.2,386.3z M193.2,372.3c2.5-3.3-2-9-5.7-10.9
			c-0.9-0.5-2.2-0.1-3.1,0.4c-0.8,0.5-1.7,1.5-1.6,2.5c0.3,3.2,6,5,6.4,7.1C189.7,373.6,192.4,373.3,193.2,372.3L193.2,372.3z
			 M171.8,363.7c1.3-0.5,3.7-2.5,4.4-3.6c0.7-1.2,3.9-3.6,6-3.9c5-0.7,4.4-1.2,4.9-8.4c-1.1,0-9.7,0.1-12.1,0.2
			c-5.8,0.1-11.5,0.1-11.7,0.1c-0.3,0,0.3,3.4,1.1,7.2C165.4,362,166,366,171.8,363.7L171.8,363.7z M329.6,332.1
			c14.3-1.4,28.1-2.5,40.1-7c11.2-3.6,21.8-10.9,27.4-19.7c0.8-2.5-2.7-1.1-3.4-0.8c-15,7.5-32.6,13.2-47.4,14.4
			c-23.9,1.5-46.1,1.8-72,0c-15.7-1.1-30.8-3.4-40.7-5.1c-6.4-1.1-10.7-1.9-11.5-1.9l0,0c-0.3,0.7,1.5,2.3,1.5,2.3
			c12.8,14.2,28.9,13.1,39.7,15C290.8,334.1,304.4,333.4,329.6,332.1z M261.3,289.1c0-1.7-14.6-1.9-19.7-2.1
			c-5.2-0.2-20.5-0.7-26-2.7c-5.5-2-5.6-3-7-5.6c-2.5-4.9-2-12.6-0.7-16.3c0.6-1.8,1-3.3,0.9-3.4c-0.1-0.1-1.2,1.1-2.4,2.8
			c-2.2,2.9-2.3,3-2.2,9.8c0.1,7.9,0.3,8.6,2.9,12.3c2.6,3.6,4.2,4.1,14.5,4.5c13.6,0.5,24,1.7,27.3,1.7S261.3,290.8,261.3,289.1
			L261.3,289.1z M329.6,285.3c8.2-0.6,14.8-1.4,23.3-2.7c2.4-0.4,6.7-1,9.7-1.3c11.8-2.2,31.2-4.9,40.5-11.4c5.1-3.3,3.8-15.6,1-17
			c-9.9-4.4-22.4-8.5-34-11.7c-10.2-2.8-21.5-5.9-31.2-6.4c-4.6-0.2-9.4-0.5-10.7-0.7c-1.3-0.2-7.9-0.6-14.7-0.7
			c-12.8,0-27.1-0.7-38.6,1.5c-15.5,3.5-44.2,10.2-56.2,21c-3.8,3.5-7.4,6.2-7.4,11.8c0,5.2,0.2,7.8,2.2,10.2
			c3.4,4.4,10.1,3.5,15.3,4C262.6,283.9,297,287.7,329.6,285.3L329.6,285.3z M405.3,245c-8.3-5.1-22.5-10.2-31.7-11.5
			c-12.1-1.7-11.1,0.7-1.4,2.5c2.9,0.6,25.8,9.7,35,12.6C407.6,248.6,407.2,246.6,405.3,245L405.3,245z M239.9,210.9
			c0.7-0.4,3.3-1.8,5.7-3c7.6-4.1,13.8-6.1,18.8-6.2c3.1-0.4,9.1-0.7,11.4-2.4c2.1-2,3.4-4.5,3.1-7.1c-0.2-1.6-1.6-3.2-3.1-3.9
			c-6.4-3-11.3-4.1-21.2,0.3c-8.8,3.9-16.1,12.3-20.6,23.6c-1.5,3.9-1.3,4.1,1.8,1.6C237.3,212.7,239.1,211.3,239.9,210.9z
			 M213.6,126.7c-0.9-3-2.2-9.3-4.1-8c-1.8,1.3-0.5,3.1,1.2,8c1.7,4.9,4.3,10.7,4.8,10.7C215.6,136.2,214.5,129.6,213.6,126.7z
			 M211.7,112.8c1.4-1.6,3.9-6.4,3.5-6.7c-0.5-0.5-3.5,2.6-4.9,5C208.6,113.9,209.6,115.2,211.7,112.8z"/>
	</g>
</g>
<g id="Layer_2">
	<circle class="st0" cx="330.9" cy="320.1" r="316"/>
</g>
</svg>
